<svg id="Capa_1" enable-background="new 0 0 502.194 502.194" height="512" viewBox="0 0 502.194 502.194" width="512" xmlns="http://www.w3.org/2000/svg"><g><path d="m499.266 314.591-121.511-121.511c6.321-25.479-.449-53.569-20.326-73.445-14.611-14.611-34.037-22.658-54.7-22.658-13.124 0-25.743 3.257-36.952 9.37-15.189-18.535-38.202-30.02-63.333-30.02-31.763 0-59.336 18.207-72.885 44.721l-38.15-8.964c-7.8-1.832-15.848-.519-22.661 3.702-6.812 4.22-11.573 10.84-13.406 18.641l-54.535 232.104c-1.833 7.801-.519 15.849 3.702 22.661 4.22 6.812 10.84 11.573 18.641 13.406l102.52 23.27c5.516 0 10.937-1.531 15.743-4.509 6.812-4.22 11.573-10.84 13.406-18.641l13.383-56.958c2.941-12.518-16.533-17.075-19.47-4.575l-13.383 56.958c-1.261 5.369-6.655 8.71-12.022 7.448l-95.602-22.463c-5.312-1.248-8.695-6.711-7.447-12.022l54.537-232.105c1.248-5.312 6.711-8.693 12.022-7.447l16.075 3.777c-3.988 4.446-6.948 9.886-8.388 16.016-5.385 22.916 12.62 45.591 36.179 45.591 23.814 0 42.013-23.71 35.662-46.698l16.073 3.777c5.368 1.261 8.709 6.655 7.457 11.983l-22.94 95.899c-2.992 12.506 16.464 17.14 19.451 4.653l22.95-95.938c3.784-16.103-6.239-32.282-22.343-36.066l-37.219-8.745c10.892-17.669 30.417-29.475 52.652-29.475 18.601 0 35.668 8.322 47.144 21.822-31.17 29.52-31.948 80.495-1.559 110.884 14.611 14.611 34.037 22.657 54.7 22.657 6.419 0 12.718-.779 18.791-2.288l16.57 16.571c1.038 1.038 2.292 1.834 3.671 2.333l26.97 9.75 16.365 34.122c1.061 2.211 2.896 3.956 5.159 4.902l30.51 12.756 20.455 38.641c1.736 3.279 5.14 5.322 8.837 5.321.081 0 .164-.001.245-.003l41.132-1.004c5.332-.13 9.623-4.421 9.753-9.753l1.004-41.132c.065-2.737-.992-5.381-2.927-7.316zm-351.995-150.851c-2.122 9.034-11.45 14.867-20.549 12.73-9.033-2.122-14.868-11.45-12.73-20.549 1.044-4.445 3.757-8.217 7.638-10.621.006-.004.013-.007.019-.011-.664 4.189-1.018 8.479-1.018 12.852 0 5.523 4.477 10 10 10s10-4.477 10-10c0-3.874.375-7.66 1.06-11.338 4.757 4.047 7.012 10.84 5.58 16.937zm112.945-27.599c.766 2.014 1.447 4.074 2.006 6.193 1.408 5.34 6.878 8.53 12.219 7.121 5.34-1.408 8.529-6.878 7.121-12.219-.7-2.655-1.541-5.241-2.49-7.769 2.665.777 5.177 2.212 7.274 4.309 3.229 3.228 5.006 7.521 5.006 12.086 0 4.566-1.778 8.858-5.007 12.086-6.665 6.666-17.509 6.664-24.173 0-5.926-5.925-6.569-15.149-1.956-21.807zm42.513 95.549c-15.32 0-29.724-5.966-40.557-16.8-12.426-12.426-17.934-29.182-16.55-45.456 13.726 16.652 39.605 17.917 54.866 2.657 15.285-15.286 14.016-41.142-2.677-54.882 1.628-.138 3.265-.233 4.918-.233 15.321 0 29.724 5.966 40.557 16.8 22.363 22.363 22.363 58.75 0 81.114-10.833 10.834-25.236 16.8-40.557 16.8zm178.697 121.34-25.425.621-19.235-36.337c-1.083-2.047-2.844-3.654-4.98-4.548l-30.302-12.669-16.488-34.377c-1.134-2.364-3.151-4.188-5.617-5.08l-28.722-10.383-9.036-9.036c11.542-6.737 21.265-16.45 27.981-28.007l112.49 112.489z"/><path d="m167.775 293.929c-5.439 0-10.004 4.55-10.005 9.995 0 5.444 4.562 10 10 10 5.448 0 10-4.552 10-10 0-5.442-4.55-9.995-9.995-9.995z"/></g></svg>