<svg height="512pt" viewBox="0 0 512 512" width="512pt" xmlns="http://www.w3.org/2000/svg"><path d="m497 482h-22v-467c0-8.285156-6.714844-15-15-15h-408c-8.285156 0-15 6.714844-15 15v467h-22c-8.285156 0-15 6.714844-15 15s6.714844 15 15 15h482c8.285156 0 15-6.714844 15-15s-6.714844-15-15-15zm-52 0h-174v-452h174zm-378-452h174v452h-174zm0 0"/><path d="m328 252h60c8.285156 0 15-6.714844 15-15v-150c0-8.285156-6.714844-15-15-15h-60c-8.285156 0-15 6.714844-15 15v150c0 8.285156 6.714844 15 15 15zm15-150h30v120h-30zm0 0"/><path d="m124 252h60c8.285156 0 15-6.714844 15-15v-150c0-8.285156-6.714844-15-15-15h-60c-8.285156 0-15 6.714844-15 15v150c0 8.285156 6.714844 15 15 15zm15-150h30v120h-30zm0 0"/><path d="m316 343h84c8.285156 0 15-6.714844 15-15s-6.714844-15-15-15h-84c-8.285156 0-15 6.714844-15 15s6.714844 15 15 15zm0 0"/><path d="m196 313h-84c-8.285156 0-15 6.714844-15 15s6.714844 15 15 15h84c8.285156 0 15-6.714844 15-15s-6.714844-15-15-15zm0 0"/></svg>