<?xml version="1.0" encoding="iso-8859-1"?>
<!-- Generator: Adobe Illustrator 17.1.0, SVG Export Plug-In . SVG Version: 6.00 Build 0)  -->
<!DOCTYPE svg PUBLIC "-//W3C//DTD SVG 1.1//EN" "http://www.w3.org/Graphics/SVG/1.1/DTD/svg11.dtd">
<svg version="1.1" id="Capa_1" xmlns="http://www.w3.org/2000/svg" xmlns:xlink="http://www.w3.org/1999/xlink" x="0px" y="0px"
	 viewBox="0 0 173.099 173.099" style="enable-background:new 0 0 173.099 173.099;" xml:space="preserve">
<path d="M153.517,173.099H19.562c-1.381,0-2.5-1.119-2.5-2.5V85.284H2.818c-1.021,0-1.938-0.62-2.319-1.567s-0.147-2.03,0.589-2.737
	L84.809,0.696c0.967-0.928,2.494-0.928,3.461,0l83.541,80.11c0.591,0.458,0.97,1.173,0.97,1.978c0,1.381-1.119,2.5-2.5,2.5
	c-0.004,0.001-0.012,0.001-0.02,0h-14.244v85.315C156.017,171.98,154.898,173.099,153.517,173.099z M22.062,168.099h128.955V82.784
	c0-1.381,1.119-2.5,2.5-2.5h10.525L86.54,5.964L9.037,80.284h10.525c1.381,0,2.5,1.119,2.5,2.5V168.099z M52.852,159.663
	c-0.076,0-0.152-0.004-0.229-0.011l-3.572-0.329c-0.581-0.054-1.125-0.309-1.538-0.722l-8.458-8.458
	c-0.529-0.529-0.794-1.267-0.721-2.012l0.674-6.874c0.057-0.576,0.312-1.114,0.721-1.523l39.113-39.113
	C74.907,90.04,77.432,78.266,85.499,70.2c5.45-5.45,12.696-8.451,20.403-8.451c7.708,0,14.954,3.001,20.404,8.451
	c11.25,11.251,11.25,29.557,0,40.808c-5.446,5.446-12.689,8.445-20.394,8.445c-3.456,0-6.821-0.601-10.026-1.789l-4.681,4.68
	c-0.469,0.469-1.104,0.732-1.768,0.732h-2.002v2.003c0,0.663-0.264,1.299-0.732,1.768l-4.175,4.174
	c-0.469,0.469-1.104,0.732-1.768,0.732h-1.082v1.083c0,0.663-0.264,1.299-0.732,1.768l-4.503,4.503
	c-0.469,0.469-1.104,0.732-1.768,0.732h-5.685v5.684c0,0.663-0.263,1.298-0.731,1.768l-1.281,1.282
	c-0.469,0.469-1.105,0.732-1.769,0.732h-1.346v1.346c0,0.663-0.264,1.299-0.732,1.768l-6.513,6.513
	C54.149,159.401,53.512,159.663,52.852,159.663z M50.409,154.427l1.505,0.139l4.951-4.951v-2.811c0-1.381,1.119-2.5,2.5-2.5h2.627
	v-6.966c0-1.381,1.119-2.5,2.5-2.5h7.149l3.038-3.038v-2.548c0-1.381,1.119-2.5,2.5-2.5h2.547l2.71-2.71v-3.467
	c0-1.381,1.119-2.5,2.5-2.5h3.467l5.118-5.117c0.729-0.729,1.829-0.937,2.773-0.521c3.042,1.337,6.278,2.015,9.618,2.015
	c6.369,0,12.355-2.479,16.858-6.98c9.3-9.302,9.3-24.436,0-33.737c-4.506-4.505-10.497-6.986-16.869-6.986
	c-6.371,0-12.362,2.481-16.868,6.986c-7.007,7.008-8.956,17.4-4.966,26.477c0.415,0.943,0.209,2.045-0.521,2.773l-39.651,39.651
	l-0.471,4.807L50.409,154.427z M112.965,93.834c-2.299,0-4.459-0.896-6.085-2.52c-1.625-1.626-2.521-3.786-2.521-6.085
	s0.896-4.459,2.521-6.084c1.626-1.625,3.786-2.521,6.085-2.521c2.298,0,4.459,0.896,6.084,2.521s2.521,3.785,2.521,6.084
	s-0.896,4.459-2.521,6.084S115.262,93.834,112.965,93.834z M112.965,81.625c-0.963,0-1.869,0.375-2.55,1.057
	c-1.405,1.404-1.405,3.691,0,5.097c1.361,1.361,3.737,1.361,5.099,0c1.405-1.405,1.405-3.692,0-5.098
	C114.833,82,113.927,81.625,112.965,81.625z"/>
<g>
</g>
<g>
</g>
<g>
</g>
<g>
</g>
<g>
</g>
<g>
</g>
<g>
</g>
<g>
</g>
<g>
</g>
<g>
</g>
<g>
</g>
<g>
</g>
<g>
</g>
<g>
</g>
<g>
</g>
</svg>
