<?xml version="1.0" encoding="iso-8859-1"?>
<!-- Generator: Adobe Illustrator 16.0.0, SVG Export Plug-In . SVG Version: 6.00 Build 0)  -->
<!DOCTYPE svg PUBLIC "-//W3C//DTD SVG 1.1//EN" "http://www.w3.org/Graphics/SVG/1.1/DTD/svg11.dtd">
<svg version="1.1" id="Capa_1" xmlns="http://www.w3.org/2000/svg" xmlns:xlink="http://www.w3.org/1999/xlink" x="0px" y="0px"
	 width="449.108px" height="449.107px" viewBox="0 0 449.108 449.107" style="enable-background:new 0 0 449.108 449.107;"
	 xml:space="preserve">
<g>
	<g>
		<path d="M260.56,210.789l-14.159-3.524v-80.56c14.395,5.797,22.184,15.568,28.451,23.434c6.459,8.104,9.858,11.999,16.497,11.999
			c8.832,0,17.745-5.117,17.745-16.548c0-18.761-17.296-32.183-27.603-38.513c-10.353-6.355-22.572-11.16-35.092-14.007V70.021
			c0-12.065-9.781-21.846-21.846-21.846s-21.846,9.781-21.846,21.846v21.366c-16.326,2.245-30.991,7.456-42.417,15.235
			c-19.331,13.163-29.55,33.431-29.55,58.615c0,21.694,14.182,55.378,54.602,66.721l17.365,4.853v89.881
			c-20.57-5.988-30.15-19.863-37.616-30.697c-6.99-10.148-11.028-15.444-19.353-15.444c-9.38,0-15.684,7.106-15.684,17.683
			c0,13.585,8.181,28.229,21.887,39.174c9.667,7.721,25.753,16.604,50.766,20.077v21.607c0,12.064,9.78,21.846,21.846,21.846
			c12.064,0,21.846-9.781,21.846-21.846v-21.413c19.423-2.556,35.358-8.856,47.539-18.833c16.43-13.457,25.112-33.38,25.112-57.614
			C319.052,251.954,303.907,221.599,260.56,210.789z M202.708,196.068c-17.783-5.538-33.727-14.309-33.727-34.233
			c0-11.967,4.59-22.077,13.277-29.235c5.494-4.528,12.426-7.695,20.449-9.405L202.708,196.068L202.708,196.068z M264.291,316.544
			c-5.069,4.424-11.104,7.765-17.891,9.972v-77.494l2.483,0.694c19.262,5.298,29.869,18.099,29.869,36.045
			C278.753,297.302,273.483,308.521,264.291,316.544z"/>
		<path d="M434.194,79.78c-8.768-19.292-21.316-36.644-36.058-51.807l5.828-14.228c2.854-6.96-3.085-14.666-10.563-13.655
			l-94.55,12.82c-7.468,1.013-11.147,10.021-6.546,15.973l58.369,75.482c2.35,3.036,6.337,4.479,10.08,3.638
			c3.551-0.796,5.941-3.306,7.281-6.578c1.325-3.232,2.65-6.466,3.977-9.699c9.423,6.045,18.262,13.014,25.584,21.533
			c3.875,4.525,7.344,9.332,10.293,14.51c2.149,3.771,3.881,7.71,5.467,11.743c2.515,6.384,4.035,13.522,4.479,20.338
			c0.277,4.273,0.263,8.47,0.098,12.747c-0.198,4.969,3.437,9.425,8.344,10.235c4.492,0.741,9.033-1.769,10.803-5.966
			c1.773-4.227,3.438-8.449,4.765-12.843c2.562-8.479,4.205-17.417,4.421-26.291C446.898,117.705,442.472,97.997,434.194,79.78z"/>
		<path d="M98.435,344.742c-2.352-3.036-6.338-4.479-10.081-3.64c-3.551,0.796-5.941,3.308-7.282,6.579
			c-1.326,3.231-2.65,6.465-3.976,9.699c-9.423-6.046-18.262-13.014-25.583-21.534c-3.875-4.523-7.345-9.332-10.295-14.509
			c-2.149-3.77-3.881-7.709-5.467-11.743c-2.514-6.383-4.035-13.521-4.479-20.339c-0.277-4.272-0.261-8.471-0.098-12.746
			c0.199-4.969-3.436-9.425-8.345-10.234c-4.491-0.741-9.032,1.77-10.8,5.966c-1.774,4.229-3.439,8.449-4.766,12.842
			c-2.561,8.479-4.204,17.417-4.42,26.292c-0.634,20.027,3.791,39.734,12.07,57.953c8.769,19.291,21.317,36.644,36.058,51.808
			l-5.829,14.227c-2.855,6.96,3.086,14.665,10.562,13.655l94.551-12.82c7.468-1.014,11.149-10.021,6.546-15.973L98.435,344.742z"/>
	</g>
</g>
<g>
</g>
<g>
</g>
<g>
</g>
<g>
</g>
<g>
</g>
<g>
</g>
<g>
</g>
<g>
</g>
<g>
</g>
<g>
</g>
<g>
</g>
<g>
</g>
<g>
</g>
<g>
</g>
<g>
</g>
</svg>
