<svg id="Layer_3" enable-background="new 0 0 64 64" height="512" viewBox="0 0 64 64" width="512" xmlns="http://www.w3.org/2000/svg"><path d="m4 6h24v52h-24z" fill="#c2c2c2"/><path d="m36 6h24v52h-24z" fill="#c2c2c2"/><path d="m8 10h6v6h-6z" fill="#4f75ad"/><path d="m8 10h3v6h-3z" fill="#699ce6"/><path d="m8 20h6v6h-6z" fill="#4f75ad"/><path d="m8 20h3v6h-3z" fill="#699ce6"/><path d="m8 30h6v6h-6z" fill="#4f75ad"/><path d="m8 30h3v6h-3z" fill="#699ce6"/><path d="m8 40h6v6h-6z" fill="#4f75ad"/><path d="m8 40h3v6h-3z" fill="#699ce6"/><path d="m18 40h6v6h-6z" fill="#4f75ad"/><path d="m18 40h3v6h-3z" fill="#699ce6"/><path d="m18 30h6v6h-6z" fill="#4f75ad"/><path d="m18 30h3v6h-3z" fill="#699ce6"/><path d="m18 20h6v6h-6z" fill="#4f75ad"/><path d="m18 20h3v6h-3z" fill="#699ce6"/><path d="m18 10h6v6h-6z" fill="#4f75ad"/><path d="m18 10h3v6h-3z" fill="#699ce6"/><path d="m40 10h6v6h-6z" fill="#4f75ad"/><path d="m40 10h3v6h-3z" fill="#699ce6"/><path d="m40 20h6v6h-6z" fill="#4f75ad"/><path d="m40 20h3v6h-3z" fill="#699ce6"/><path d="m40 30h6v6h-6z" fill="#4f75ad"/><path d="m40 30h3v6h-3z" fill="#699ce6"/><path d="m40 40h6v6h-6z" fill="#4f75ad"/><path d="m40 40h3v6h-3z" fill="#699ce6"/><path d="m50 30h6v6h-6z" fill="#4f75ad"/><path d="m50 30h3v6h-3z" fill="#699ce6"/><path d="m50 20h6v6h-6z" fill="#4f75ad"/><path d="m50 20h3v6h-3z" fill="#699ce6"/><path d="m50 40h6v6h-6z" fill="#4f75ad"/><path d="m50 40h3v6h-3z" fill="#699ce6"/><path d="m50 10h6v6h-6z" fill="#4f75ad"/><path d="m50 10h3v6h-3z" fill="#699ce6"/><path d="m12 58v-4c0-2.209 1.791-4 4-4 2.209 0 4 1.791 4 4v4z" fill="#98775a"/><path d="m14.5 50.297c-1.465.594-2.5 2.025-2.5 3.703v4h5v-4c0-1.678-1.035-3.109-2.5-3.703z" fill="#cb9e78"/><path d="m44 58v-4c0-2.209 1.791-4 4-4 2.209 0 4 1.791 4 4v4z" fill="#98775a"/><path d="m46.5 50.297c-1.465.594-2.5 2.025-2.5 3.703v4h5v-4c0-1.678-1.035-3.109-2.5-3.703z" fill="#cb9e78"/><path d="m28 12h8v4h-8z" fill="#4c4d4c"/><path d="m28 12h5v4h-5z" fill="#656665"/><path d="m28 22h8v4h-8z" fill="#4c4d4c"/><path d="m28 22h5v4h-5z" fill="#656665"/><path d="m28 32h8v4h-8z" fill="#4c4d4c"/><path d="m28 32h5v4h-5z" fill="#656665"/><path d="m28 42h8v4h-8z" fill="#4c4d4c"/><path d="m28 42h5v4h-5z" fill="#656665"/><path d="m2 2h28v4h-28z" fill="#4c4d4c"/><path d="m2 2h25v4h-25z" fill="#656665"/><path d="m34 2h28v4h-28z" fill="#4c4d4c"/><path d="m34 2h25v4h-25z" fill="#656665"/><path d="m2 58h60v4h-60z" fill="#4c4d4c"/><path d="m2 58h57v4h-57z" fill="#656665"/></svg>