<svg id="Flat" height="512" viewBox="0 0 512 512" width="512" xmlns="http://www.w3.org/2000/svg"><path d="m24 104h240v384h-240z" fill="#92d4ef"/><path d="m66 296h156a18 18 0 0 1 18 18v174a0 0 0 0 1 0 0h-192a0 0 0 0 1 0 0v-174a18 18 0 0 1 18-18z" fill="#39679d"/><g fill="#37a6cb"><path d="m72 320h32v32h-32z"/><path d="m128 320h32v32h-32z"/><path d="m184 320h32v32h-32z"/><path d="m72 376h32v32h-32z"/><path d="m128 376h32v32h-32z"/><path d="m184 376h32v32h-32z"/><path d="m72 432h32v32h-32z"/><path d="m128 432h32v32h-32z"/><path d="m184 432h32v32h-32z"/><path d="m80 200h128v64h-128z"/><circle cx="232" cy="200" r="8"/><circle cx="232" cy="232" r="8"/><circle cx="232" cy="264" r="8"/></g><path d="m64 24h160v144h-160z" fill="#f6e4a2"/><path d="m112 40h64v16h-64z" fill="#394f5a"/><path d="m88 64h48v16h-48z" fill="#394f5a"/><path d="m152 64h48v16h-48z" fill="#394f5a"/><path d="m88 88h112v16h-112z" fill="#394f5a"/><path d="m88 112h48v16h-48z" fill="#394f5a"/><path d="m88 136h48v16h-48z" fill="#394f5a"/><path d="m168 112h32v16h-32z" fill="#394f5a"/><path d="m168 136h32v16h-32z" fill="#394f5a"/><path d="m264 256h32v232h-32z" fill="#39679d"/><path d="m296 224h32v264h-32z" fill="#92d4ef"/><path d="m264 24h224v144h-224z" fill="#aacb2a"/><path d="m296 56h40v32h-40z" fill="#f08e04"/><path d="m288 104h16v16h-16z" fill="#394f5a"/><path d="m320 104h16v16h-16z" fill="#394f5a"/><path d="m352 104h32v16h-32z" fill="#394f5a"/><path d="m288 128h32v16h-32z" fill="#394f5a"/><path d="m336 128h32v16h-32z" fill="#394f5a"/><path d="m408 48h32v16h-32z" fill="#37a6cb"/><circle cx="456" cy="56" fill="#37a6cb" r="8"/><path d="m400 112 16 24h48l-16-24z" fill="#ccdce8"/></svg>