<svg id="Layer_1" enable-background="new 0 0 256 256" height="512" viewBox="0 0 256 256" width="512" xmlns="http://www.w3.org/2000/svg"><path d="m143.583 91.138c-1.828-1.534-4.493-1.534-6.321 0l-63.081 52.932v53.867 22.546c0 5.54 4.491 10.03 10.03 10.03h112.42c5.54 0 10.03-4.491 10.03-10.03v-22.546-53.868z" fill="#6bdddd"/><path d="m25.5 239h-11.5c-3.314 0-6-2.686-6-6v-210c0-3.314 2.686-6 6-6h11.5c3.314 0 6 2.686 6 6v210c0 3.314-2.686 6-6 6z" fill="#f9a7a7"/><path d="m31.5 46v-17.195h207.903c4.748 0 8.597 3.849 8.597 8.597 0 4.748-3.849 8.597-8.597 8.597h-207.903z" fill="#f9cfcf"/><path d="m25.5 241h-11.5c-4.411 0-8-3.589-8-8v-210c0-4.411 3.589-8 8-8h11.5c4.411 0 8 3.589 8 8v210c0 4.411-3.589 8-8 8zm-11.5-222c-2.206 0-4 1.794-4 4v210c0 2.206 1.794 4 4 4h11.5c2.206 0 4-1.794 4-4v-210c0-2.206-1.794-4-4-4z" fill="#3762cc"/><path d="m239.402 48h-207.902c-1.104 0-2-.896-2-2v-17.195c0-1.104.896-2 2-2h207.902c5.844 0 10.598 4.754 10.598 10.598 0 5.843-4.754 10.597-10.598 10.597zm-205.902-4h205.902c3.638 0 6.598-2.959 6.598-6.597s-2.96-6.598-6.598-6.598h-205.902z" fill="#3762cc"/><path d="m49.919 147.625-5.247-6.235c-1.749-2.078-1.482-5.18.597-6.929l3.373-2.837.147-.134 88.487-74.228c1.828-1.533 4.493-1.533 6.321 0l91.975 77.176c2.08 1.746 2.352 4.847.606 6.927l-10.366 12.353c-1.746 2.08-4.847 2.352-6.927.606l-75.301-63.187c-1.828-1.534-4.493-1.534-6.321 0l-75.303 63.189c-2.08 1.746-5.181 1.474-6.927-.606z" fill="#4671c6"/><path d="m208.297 54.181h-13.75c-2.761 0-5-2.239-5-5v-22c0-2.761 2.239-5 5-5h13.75c2.761 0 5 2.239 5 5v22c0 2.762-2.239 5-5 5z" fill="#a4c9ff"/><path d="m86.297 54.181h-13.75c-2.761 0-5-2.239-5-5v-22c0-2.761 2.239-5 5-5h13.75c2.761 0 5 2.239 5 5v22c0 2.762-2.239 5-5 5z" fill="#a4c9ff"/><path d="m208.297 56.181h-13.75c-3.859 0-7-3.14-7-7v-22c0-3.86 3.141-7 7-7h13.75c3.859 0 7 3.14 7 7v22c0 3.86-3.141 7-7 7zm-13.75-32c-1.654 0-3 1.346-3 3v22c0 1.654 1.346 3 3 3h13.75c1.654 0 3-1.346 3-3v-22c0-1.654-1.346-3-3-3z" fill="#3762cc"/><path d="m86.297 56.181h-13.75c-3.859 0-7-3.14-7-7v-22c0-3.86 3.141-7 7-7h13.75c3.859 0 7 3.14 7 7v22c0 3.86-3.141 7-7 7zm-13.75-32c-1.654 0-3 1.346-3 3v22c0 1.654 1.346 3 3 3h13.75c1.654 0 3-1.346 3-3v-22c0-1.654-1.346-3-3-3z" fill="#3762cc"/><path d="m58.812 157.477c-.204 0-.409-.009-.615-.027-1.84-.161-3.508-1.029-4.695-2.444l-10.359-12.327c-1.189-1.414-1.758-3.206-1.6-5.047s1.024-3.51 2.439-4.7l3.455-2.915 88.553-74.287c2.576-2.162 6.315-2.161 8.892 0l91.975 77.176c1.416 1.188 2.284 2.855 2.444 4.696.161 1.841-.404 3.634-1.592 5.049l-10.365 12.354c-2.453 2.923-6.825 3.302-9.746.853l-75.3-63.187c-1.088-.912-2.664-.913-3.75 0l-75.303 63.187c-1.257 1.055-2.811 1.619-4.433 1.619zm81.624-99.365c-.666 0-1.332.228-1.875.683l-92.005 77.197c-.597.502-.962 1.206-1.028 1.982s.173 1.532.675 2.128l5.247 6.235c.001 0 .001.001.002.002l5.114 6.094c.501.597 1.204.963 1.979 1.031.778.067 1.533-.171 2.129-.671l75.303-63.187c2.576-2.163 6.316-2.161 8.893 0l75.3 63.187c1.232 1.034 3.076.873 4.11-.359l10.365-12.354c.501-.597.74-1.353.672-2.129-.067-.776-.434-1.479-1.031-1.98l-91.974-77.176c-.544-.456-1.21-.683-1.876-.683z" fill="#3762cc"/><g fill="#ffea92"><path d="m106.714 147.354c-1.069 0-1.99.395-2.662 1.142-.655.728-.987 1.771-.987 3.103v6.57h-9.553v-6.57c0-1.349-.342-2.4-1.017-3.125-.694-.743-1.598-1.12-2.688-1.12-1.098 0-2.027.398-2.689 1.151-.637.727-.96 1.767-.96 3.093v20.818c0 1.327.326 2.371.97 3.102.667.759 1.594 1.16 2.68 1.16 1.063 0 1.989-.391 2.678-1.129.681-.73 1.026-1.784 1.026-3.133v-7.886h9.553v7.886c0 1.328.327 2.372.971 3.102.667.759 1.593 1.16 2.679 1.16 1.077 0 1.979-.38 2.679-1.129.681-.729 1.025-1.783 1.025-3.133v-20.818c0-1.349-.342-2.4-1.017-3.125-.695-.742-1.598-1.119-2.688-1.119z"/><path d="m134.342 149.151c-2.107-1.193-4.646-1.797-7.548-1.797-2.137 0-4.08.342-5.776 1.017-1.719.683-3.199 1.686-4.401 2.979-1.195 1.286-2.119 2.861-2.745 4.681-.616 1.79-.929 3.78-.929 5.913 0 2.079.299 4.046.888 5.844.6 1.832 1.503 3.426 2.686 4.738 1.19 1.321 2.69 2.356 4.457 3.077 1.747.713 3.741 1.075 5.929 1.075 2.197 0 4.185-.352 5.908-1.046 1.744-.703 3.239-1.736 4.441-3.069 1.194-1.324 2.101-2.905 2.694-4.699.584-1.764.88-3.743.88-5.884 0-2.905-.544-5.483-1.617-7.661-1.096-2.222-2.733-3.961-4.867-5.168zm-12.046 19.232c-.598-.692-1.071-1.587-1.406-2.663-.347-1.111-.522-2.381-.522-3.775 0-1.38.176-2.634.521-3.727.336-1.062.793-1.936 1.357-2.6.563-.66 1.213-1.148 1.987-1.492.774-.343 1.636-.518 2.561-.518 1.322 0 2.454.307 3.461.938.995.625 1.745 1.532 2.293 2.773.565 1.284.852 2.841.852 4.626 0 1.932-.31 3.565-.921 4.852-.59 1.242-1.381 2.165-2.35 2.743-.998.596-2.066.886-3.264.886-.924 0-1.779-.171-2.541-.509-.756-.335-1.437-.852-2.028-1.534z"/><path d="m169.31 148.578c-.766-.513-1.771-.773-2.99-.773h-1.658c-1.135 0-1.967.112-2.543.342-.686.274-1.217.787-1.536 1.481-.243.526-.505 1.329-.799 2.453l-2.872 10.829-2.871-10.826c-.294-1.122-.555-1.924-.799-2.455-.32-.696-.852-1.209-1.537-1.483-.576-.23-1.408-.342-2.543-.342h-1.658c-1.219 0-2.225.26-2.99.773-.893.598-1.345 1.663-1.345 3.165v20.908c0 1.274.318 2.269.947 2.956.644.702 1.509 1.072 2.504 1.072 1.023 0 1.901-.377 2.54-1.091.617-.691.93-1.679.93-2.937v-10.167l2.268 9.014c.146.556.287 1.091.426 1.603.159.59.383 1.14.665 1.633.322.564.775 1.031 1.348 1.388.592.371 1.304.558 2.116.558 1.079 0 1.958-.298 2.614-.886.595-.534 1.013-1.145 1.243-1.819.184-.539.419-1.374.699-2.484l2.266-9.005v10.167c0 1.261.317 2.251.943 2.941.643.711 1.504 1.087 2.49 1.087 1.035 0 1.919-.377 2.558-1.091.617-.691.93-1.679.93-2.937v-20.908c-.002-1.503-.454-2.568-1.346-3.166z"/><path d="m195.554 170.822c-.615-.563-1.482-.848-2.576-.848h-11.473v-5.516h10.103c1.091 0 1.942-.284 2.529-.845.592-.564.904-1.323.904-2.192 0-.877-.322-1.635-.932-2.19-.591-.538-1.433-.81-2.502-.81h-10.103v-4.489h11.058c1.107 0 1.974-.279 2.575-.829.62-.566.948-1.342.948-2.244 0-.891-.328-1.66-.947-2.225-.603-.55-1.47-.83-2.576-.83h-14.131c-.897 0-1.665.143-2.281.424-.708.324-1.233.845-1.562 1.548-.294.627-.438 1.382-.438 2.308v19.863c0 1.421.354 2.5 1.055 3.208.703.711 1.788 1.072 3.226 1.072h14.546c1.095 0 1.962-.286 2.577-.849.631-.578.964-1.359.964-2.26.001-.923-.332-1.717-.964-2.296z"/><path d="m116.332 199.715c-.92-.653-2.041-1.211-3.331-1.661-1.234-.43-2.629-.828-4.13-1.179-1.169-.295-2.008-.519-2.516-.672-.447-.136-.899-.327-1.341-.569-.377-.206-.669-.446-.87-.714-.158-.212-.232-.457-.232-.77 0-.329.089-.829.853-1.376.671-.48 1.6-.724 2.762-.724 1.226 0 2.127.21 2.605.607.559.465 1.053 1.138 1.487 2.037.425.796.825 1.37 1.225 1.754.509.491 1.213.739 2.091.739.956 0 1.798-.382 2.434-1.104.615-.696.928-1.498.928-2.384 0-.847-.217-1.717-.644-2.586-.419-.852-1.079-1.666-1.961-2.419-.874-.746-1.976-1.348-3.273-1.79-1.283-.436-2.808-.657-4.531-.657-2.149 0-4.058.331-5.674.983-1.676.677-2.983 1.672-3.886 2.958-.91 1.296-1.371 2.793-1.371 4.45 0 1.736.443 3.223 1.318 4.42.849 1.16 2.003 2.085 3.433 2.75 1.338.622 3.007 1.168 4.965 1.627 1.382.316 2.492.616 3.299.892.692.235 1.258.574 1.68 1.004.349.356.518.826.518 1.437 0 .789-.345 1.413-1.085 1.965-.811.604-1.91.91-3.269.91-.987 0-1.772-.147-2.335-.438-.559-.288-.99-.65-1.285-1.077-.348-.502-.679-1.145-.981-1.903-.336-.861-.746-1.507-1.254-1.976-.579-.535-1.289-.806-2.11-.806-.961 0-1.804.345-2.438.996-.637.653-.96 1.449-.96 2.365 0 1.306.432 2.648 1.281 3.987.833 1.313 1.933 2.378 3.271 3.167 1.84 1.071 4.181 1.614 6.955 1.614 2.31 0 4.347-.394 6.056-1.171 1.756-.798 3.115-1.929 4.039-3.36.926-1.433 1.396-3.064 1.396-4.851 0-1.489-.277-2.78-.823-3.838-.548-1.058-1.32-1.946-2.296-2.637z"/><path d="m143.89 189.914c0-.938-.347-1.749-1.004-2.345-.639-.579-1.559-.872-2.735-.872h-17.015c-1.119 0-2.015.281-2.66.835-.683.584-1.044 1.408-1.044 2.381 0 .938.345 1.747.995 2.336.632.573 1.543.863 2.709.863h4.84v18.196c0 1.348.341 2.4 1.013 3.129.684.741 1.607 1.133 2.673 1.133 1.052 0 1.967-.389 2.646-1.125.666-.723 1.004-1.779 1.004-3.137v-18.196h4.84c1.159 0 2.073-.287 2.716-.854.668-.589 1.022-1.4 1.022-2.344z"/><path d="m159.577 191.883c-.329-.863-.6-1.554-.813-2.069-.236-.575-.531-1.12-.876-1.621-.393-.569-.91-1.038-1.539-1.393-.649-.367-1.442-.553-2.357-.553-.903 0-1.69.186-2.34.553-.633.358-1.153.836-1.547 1.423-.347.518-.672 1.162-.965 1.913l-.693 1.773-6.756 17.151c-.288.714-.491 1.264-.621 1.681-.15.48-.227.957-.227 1.415 0 .894.375 1.724 1.085 2.4.707.674 1.539 1.016 2.475 1.016 1.395 0 2.135-.594 2.511-1.092.411-.545.869-1.504 1.4-2.93l1.019-2.738h9.358l1.027 2.698c.171.415.375.893.612 1.435.271.62.529 1.081.788 1.407.294.373.662.671 1.095.888.438.22.953.332 1.529.332.992 0 1.853-.356 2.555-1.059.702-.702 1.059-1.507 1.059-2.392 0-.738-.282-1.759-.884-3.206zm-8.111 10.91 2.499-6.967 2.545 6.967z"/><path d="m187.358 187.187c-.643-.625-1.444-.941-2.383-.941-.591 0-1.115.117-1.562.348-.415.216-.793.525-1.126.922-.278.333-.535.692-.764 1.069l-.75 1.233-4.139 6.649-4.091-6.644c-.8-1.306-1.395-2.167-1.817-2.629-.574-.629-1.384-.948-2.406-.948-.955 0-1.776.315-2.439.937-.674.63-1.029 1.431-1.029 2.316 0 .525.146 1.093.444 1.735.253.547.664 1.274 1.265 2.231l6.293 9.756v8.087c0 1.36.338 2.416 1.004 3.137.677.736 1.599 1.125 2.664 1.125s1.96-.38 2.66-1.129c.681-.729 1.025-1.783 1.025-3.133v-8.084l6.447-9.891c.584-.876.988-1.551 1.237-2.063.295-.604.444-1.225.444-1.844.002-.84-.336-1.615-.977-2.239z"/></g><path d="m196.351 54.181v68.747c0 2.801 2.271 5.071 5.071 5.071s5.071-2.271 5.071-5.071v-68.747z" fill="#e0ebfc"/><path d="m74.351 54.181v68.747c0 2.801 2.271 5.071 5.071 5.071s5.071-2.271 5.071-5.071v-68.747z" fill="#e0ebfc"/><path d="m201.422 130c-3.899 0-7.071-3.172-7.071-7.071v-68.747c0-1.104.896-2 2-2h10.143c1.104 0 2 .896 2 2v68.747c-.001 3.899-3.173 7.071-7.072 7.071zm-3.071-73.818v66.747c0 1.693 1.378 3.071 3.071 3.071s3.071-1.378 3.071-3.071v-66.747z" fill="#3762cc"/><path d="m79.422 130c-3.899 0-7.071-3.172-7.071-7.071v-68.747c0-1.104.896-2 2-2h10.143c1.104 0 2 .896 2 2v68.747c-.001 3.899-3.173 7.071-7.072 7.071zm-3.071-73.818v66.747c0 1.693 1.378 3.071 3.071 3.071s3.071-1.378 3.071-3.071v-66.747z" fill="#3762cc"/><path d="m196.631 232.514h-112.42c-6.634 0-12.03-5.397-12.03-12.03v-76.413c0-.591.262-1.152.715-1.532l63.081-52.932c2.576-2.163 6.316-2.161 8.893 0l63.077 52.931c.453.38.715.941.715 1.532v76.415c-.001 6.632-5.397 12.029-12.031 12.029zm-120.45-87.511v75.48c0 4.428 3.603 8.03 8.03 8.03h112.42c4.428 0 8.03-3.603 8.03-8.03v-75.482l-62.363-52.331h-.001c-1.087-.913-2.664-.912-3.749 0z" fill="#3762cc"/></svg>