<svg height="464pt" viewBox="0 0 464 464" width="464pt" xmlns="http://www.w3.org/2000/svg"><path d="m24 248v216h416v-216l-208-208zm0 0" fill="#fbc250"/><path d="m232 48-208 208-24-24 232-232 232 232-24 24zm0 0" fill="#901c09"/><path d="m96 336h296v56h-296zm0 0" fill="#fbebe3"/><path d="m128 320 6.625 6.625c6 6.003906 14.140625 9.375 22.632812 9.375h21.484376c8.492187 0 16.632812-3.371094 22.632812-9.375l6.625-6.625-6.625-6.625c-6-6.003906-14.140625-9.375-22.632812-9.375h-21.484376c-8.492187 0-16.632812 3.371094-22.632812 9.375zm0 0" fill="#37b7ae"/><path d="m248 304h112c8.835938 0 16 7.164062 16 16s-7.164062 16-16 16h-112c-8.835938 0-16-7.164062-16-16s7.164062-16 16-16zm0 0" fill="#5fd1d0"/><path d="m208 336h184v56h-184zm0 0" fill="#da9d41"/><path d="m104 384v-128h-32v208h32v-32h256v32h32v-80zm0 0" fill="#4c4c4c"/></svg>