<?xml version="1.0"?>
<svg xmlns="http://www.w3.org/2000/svg" xmlns:xlink="http://www.w3.org/1999/xlink" version="1.1" id="Capa_1" x="0px" y="0px" viewBox="0 0 512 512" style="enable-background:new 0 0 512 512;" xml:space="preserve" width="512px" height="512px" class=""><g><path style="fill:#E4E61B" d="M256,0C150.112,0,64,86.112,64,192c0,133.088,173.312,307.936,180.672,315.328  C247.808,510.432,251.904,512,256,512c4.096,0,8.192-1.568,11.328-4.672C274.688,499.936,448,325.088,448,192  C448,86.112,361.888,0,256,0z" data-original="#2196F3" class="active-path" data-old_color="#2196F3"/><g>
	<circle style="fill:#FAFAFA" cx="256" cy="112" r="48" data-original="#FAFAFA" class=""/>
	<path style="fill:#FAFAFA" d="M352,288H160v-48c0-26.496,21.504-48,48-48h96c26.496,0,48,21.504,48,48V288z" data-original="#FAFAFA" class=""/>
</g></g> </svg>
